<?xml version="1.0" encoding="UTF-8"?>
<svg xmlns="http://www.w3.org/2000/svg" xmlns:xlink="http://www.w3.org/1999/xlink" width="16px" height="17px" viewBox="0 0 16 17" version="1.1">
<g id="surface1">
<path style=" stroke:none;fill-rule:evenodd;fill:rgb(94.901961%,94.901961%,94.901961%);fill-opacity:1;" d="M 8.183594 6.953125 C 8.152344 7.183594 8.234375 7.410156 8.394531 7.574219 C 8.558594 7.738281 8.789062 7.816406 9.019531 7.785156 L 10.910156 7.539062 C 11.074219 7.519531 11.226562 7.445312 11.339844 7.328125 L 15.78125 2.90625 C 16.074219 2.617188 16.074219 2.144531 15.78125 1.855469 L 14.136719 0.21875 C 13.996094 0.078125 13.808594 0 13.609375 0 C 13.414062 0 13.222656 0.078125 13.082031 0.21875 L 8.644531 4.640625 C 8.527344 4.757812 8.453125 4.90625 8.429688 5.070312 Z M 10.8125 6.804688 L 13.996094 3.632812 L 12.351562 1.996094 L 13.609375 0.742188 L 15.253906 2.378906 Z M 10.8125 6.804688 "/>
<path style=" stroke:none;fill-rule:evenodd;fill:rgb(94.901961%,94.901961%,94.901961%);fill-opacity:1;" d="M 12.347656 8.332031 L 14.933594 5.753906 L 14.933594 11.558594 C 14.933594 13.195312 13.660156 14.519531 12.089844 14.519531 L 9.441406 14.519531 L 5.136719 17 L 5.136719 14.519531 L 2.84375 14.519531 C 1.273438 14.519531 0 13.195312 0 11.558594 L 0 5.441406 C 0 3.804688 1.273438 2.480469 2.84375 2.480469 L 8.800781 2.480469 L 7.636719 3.640625 C 7.300781 3.976562 7.082031 4.414062 7.019531 4.886719 L 6.773438 6.769531 C 6.6875 7.433594 6.914062 8.101562 7.390625 8.574219 C 7.867188 9.050781 8.535156 9.277344 9.203125 9.191406 L 11.09375 8.945312 C 11.570312 8.882812 12.007812 8.667969 12.347656 8.332031 Z M 3.910156 12.75 C 4.5 12.75 4.976562 12.273438 4.976562 11.6875 C 4.976562 11.101562 4.5 10.625 3.910156 10.625 C 3.320312 10.625 2.84375 11.101562 2.84375 11.6875 C 2.84375 12.273438 3.320312 12.75 3.910156 12.75 Z M 8.535156 11.6875 C 8.535156 12.273438 8.054688 12.75 7.464844 12.75 C 6.878906 12.75 6.398438 12.273438 6.398438 11.6875 C 6.398438 11.101562 6.878906 10.625 7.464844 10.625 C 8.054688 10.625 8.535156 11.101562 8.535156 11.6875 Z M 12.089844 11.6875 C 12.089844 12.273438 11.613281 12.75 11.023438 12.75 C 10.433594 12.75 9.957031 12.273438 9.957031 11.6875 C 9.957031 11.101562 10.433594 10.625 11.023438 10.625 C 11.613281 10.625 12.089844 11.101562 12.089844 11.6875 Z M 12.089844 11.6875 "/>
</g>
</svg>
